<?xml version="1.0" encoding="UTF-8" standalone="no"?>
<!-- Created with Inkscape (http://www.inkscape.org/) -->

<svg
   width="162.65816mm"
   height="179.2598mm"
   viewBox="0 0 162.65816 179.2598"
   version="1.1"
   id="svg1"
   xml:space="preserve"
   xmlns:inkscape="http://www.inkscape.org/namespaces/inkscape"
   xmlns:sodipodi="http://sodipodi.sourceforge.net/DTD/sodipodi-0.dtd"
   xmlns="http://www.w3.org/2000/svg"
   xmlns:svg="http://www.w3.org/2000/svg"><sodipodi:namedview
     id="namedview1"
     pagecolor="#ffffff"
     bordercolor="#000000"
     borderopacity="0.25"
     inkscape:showpageshadow="2"
     inkscape:pageopacity="0.0"
     inkscape:pagecheckerboard="0"
     inkscape:deskcolor="#d1d1d1"
     inkscape:document-units="mm" /><defs
     id="defs1" /><g
     inkscape:label="Capa 1"
     inkscape:groupmode="layer"
     id="layer1"
     transform="translate(-20.491158,-48.943602)"><path
       style="fill:#000000;stroke-width:0.989759"
       d="m 22.256295,227.48889 c 49.600842,-62.88202 61.764842,-78.37783 61.764842,-78.68381 0,-0.26734 -13.740378,-22.17594 -30.534385,-48.823419 C 36.692719,73.334646 22.694379,51.100804 22.379377,50.573036 l -0.572695,-0.94419 h 23.803579 23.803345 l 20.600642,32.746839 c 11.330672,18.010835 20.689242,32.717455 20.797722,32.679575 0.11343,-0.0364 11.45315,-14.34096 25.21106,-31.7875 13.75792,-17.446987 25.40234,-32.156279 25.87637,-32.687606 l 0.86188,-0.94419 6.89425,0.08911 6.89503,0.08911 -29.70039,37.62987 c -16.33447,20.697326 -29.64066,37.796036 -29.56882,37.996876 0.0756,0.13353 14.36841,22.95446 31.77003,50.56216 17.40122,27.60771 31.89664,50.62851 32.21153,51.15449 l 0.57082,0.94419 h -23.80258 -23.80257 l -21.72084,-34.49849 c -11.94607,-18.97416 -21.864464,-34.45394 -22.040252,-34.39827 -0.189047,0.0444 -12.508712,15.53902 -27.40658,34.4103 l -27.086468,34.31232 -7.103488,0.0891 c -6.769531,0.0891 -7.080563,0.0444 -6.616851,-0.53889 z M 140.89378,183.19001 C 128.9889,164.6287 106.51391,129.57306 90.949458,105.28826 L 62.650005,61.135027 51.858212,61.126751 c -5.9357,-0.0055 -10.792141,0.04442 -10.792141,0.133528 0,0.133529 97.550509,152.387911 99.022519,154.535931 l 0.77494,1.0778 h 10.83736 10.8366 z"
       id="path1" /></g></svg>
